<svg xmlns="http://www.w3.org/2000/svg" xmlns:xlink="http://www.w3.org/1999/xlink" width="200" height="200" viewBox="0 0 200 200"><defs><linearGradient id="a" x1="45.79" y1="109.15" x2="52" y2="109.15" gradientTransform="matrix(1, 0, 0, -1, 0, 200)" gradientUnits="userSpaceOnUse"><stop offset="0" stop-color="#004370" stop-opacity="0.8"/><stop offset="1" stop-color="#005a96" stop-opacity="0.8"/></linearGradient></defs><title>Artboard 1</title><path d="M143,148H52a6,6,0,0,0-5.1,2.5,6.3,6.3,0,0,0-.8,5.6,10.67,10.67,0,0,0,3.8,5.6,9.93,9.93,0,0,0,6.2,2.3H156Z" fill="#999" opacity="0.8" style="isolation:isolate"/><path d="M143,28H52V148h91a5,5,0,0,0,5-5V33A5,5,0,0,0,143,28Z" fill="#005a96" opacity="0.8" style="isolation:isolate"/><path d="M148,38V143a5,5,0,0,1-5,5h0l13,16V47.8Z" fill="#fff" opacity="0.8" style="isolation:isolate"/><path d="M148,38V143a5,5,0,0,1-5,5h0l3.4,4.2a5.34,5.34,0,0,0,2.6-5l.5-107.3Z" fill="#333" opacity="0.25" style="isolation:isolate"/><path d="M145.5,152.3a2.77,2.77,0,0,0,.9-.1L143,148H52a6,6,0,0,0-5.1,2.5,7.57,7.57,0,0,0-.9,1.8Z" fill="#333" opacity="0.3" style="isolation:isolate"/><path d="M46.9,150.5A6.21,6.21,0,0,1,52,148V28a14.37,14.37,0,0,0-6.2,1.3V153.7h0A5.17,5.17,0,0,1,46.9,150.5Z" fill="url(#a)"/><path d="M163.4,46.6A4.75,4.75,0,0,1,164,49V167a5,5,0,0,1-5,5H56.3a19.85,19.85,0,0,1-12.5-4.8c-.2-.1-.3-.3-.5-.4a18.78,18.78,0,0,0,2.5,2.4A19.85,19.85,0,0,0,58.3,174H160a6.45,6.45,0,0,0,6-6V51A5.17,5.17,0,0,0,163.4,46.6Z" opacity="0.15" style="isolation:isolate"/><path d="M159,44h-6.1l3.1,3.8V164l-99.9-.1a9.93,9.93,0,0,1-6.2-2.3,10.13,10.13,0,0,1-3.8-5.6,9.86,9.86,0,0,1-.3-2.4h0V29.3a16.79,16.79,0,0,0-5,3.5A15.14,15.14,0,0,0,36,44V151a21.3,21.3,0,0,0,7.8,16.3,19.85,19.85,0,0,0,12.5,4.8H159a5,5,0,0,0,5-5V49A5,5,0,0,0,159,44Z" fill="#004370" opacity="0.8" style="isolation:isolate"/><rect x="70" y="60" width="56" height="40" fill="#fff" opacity="0.3" style="isolation:isolate"/></svg>